<?xml version="1.0" encoding="UTF-8" standalone="no"?>
<!-- Created with Inkscape (http://www.inkscape.org/) -->

<svg
   width="400.797mm"
   height="305.15799mm"
   viewBox="0 0 400.797 305.15799"
   version="1.1"
   id="svg1"
   xml:space="preserve"
   inkscape:version="1.4.2 (f4327f4, 2025-05-13)"
   sodipodi:docname="SMARTWISE_LOGO_FINAL_24_Septembre_2025.svg"
   inkscape:export-filename="SMARTWISE_LOGO_FINAL_24_Septembre_2025.png"
   inkscape:export-xdpi="950.60596"
   inkscape:export-ydpi="950.60596"
   xmlns:inkscape="http://www.inkscape.org/namespaces/inkscape"
   xmlns:sodipodi="http://sodipodi.sourceforge.net/DTD/sodipodi-0.dtd"
   xmlns="http://www.w3.org/2000/svg"
   xmlns:svg="http://www.w3.org/2000/svg"><sodipodi:namedview
     id="namedview1"
     pagecolor="#d1d1d1"
     bordercolor="#000000"
     borderopacity="0.25"
     inkscape:showpageshadow="2"
     inkscape:pageopacity="0.0"
     inkscape:pagecheckerboard="0"
     inkscape:deskcolor="#d1d1d1"
     inkscape:document-units="mm"
     showborder="false"
     inkscape:lockguides="false"
     inkscape:zoom="0.25"
     inkscape:cx="1098"
     inkscape:cy="714"
     inkscape:window-width="1920"
     inkscape:window-height="1009"
     inkscape:window-x="-8"
     inkscape:window-y="-8"
     inkscape:window-maximized="1"
     inkscape:current-layer="g2"
     inkscape:export-bgcolor="#00000000" /><defs
     id="defs1" /><g
     inkscape:label="Calque 1"
     inkscape:groupmode="layer"
     id="layer1"
     transform="translate(-82.792842,-220.76774)"><text
       xml:space="preserve"
       style="font-size:11.2889px;text-align:start;letter-spacing:0px;writing-mode:lr-tb;direction:ltr;text-anchor:start;opacity:1;fill:#4e7994;stroke:#4e7994;stroke-width:0.264999"
       x="65.668121"
       y="86.434959"
       id="text4"><tspan
         sodipodi:role="line"
         id="tspan4"
         style="stroke-width:0.265"
         x="65.668121"
         y="86.434959" /></text><g
       id="g1"><g
         id="g2"><g
           id="g3"
           transform="translate(31.75,31.75)"><path
             style="fill:#4e7994;fill-opacity:1;stroke-width:0.335149"
             d="m 302.63536,343.94705 v 4.12565 l -19.4782,0.10855 c -3.27321,0.0182 -4.67252,5.65011 0.12729,5.75417 l 15.0224,0.32572 c 7.51517,0.16293 8.77752,14.955 -0.0528,14.9628 l -22.35354,0.0198 0.12729,-4.77705 20.3057,0.10856 c 3.49157,0.0187 2.77163,-5.71602 0.0636,-5.75419 l -15.40431,-0.21713 c -8.81635,-0.12428 -8.16189,-14.65688 0,-14.65687 z"
             id="path9-6"
             sodipodi:nodetypes="ccssssccssssc" /><path
             style="fill:#4e7994;fill-opacity:1;stroke-width:0.335149"
             d="m 409.15401,376.07355 0.0318,1.19426 -200.82914,-0.0814 v -1.05855 z"
             id="path31-6" /><path
             style="fill:#4e7994;fill-opacity:1;stroke-width:0.335149"
             d="m 133.73769,346.19484 c 3.22326,2.98413 26.88565,19.97626 48.97126,0.2303 0.9312,1.88675 4.84981,11.32557 -2.61059,21.26534 -13.04331,15.6941 -33.90371,12.49328 -44.25743,1.84022 -7.79641,-8.7372 -4.3973,-21.19851 -2.10324,-23.33586 z"
             id="path5"
             sodipodi:nodetypes="ccccc" /><path
             style="fill:#4e7994;fill-opacity:1;stroke-width:0.335149"
             d="m 134.18779,336.29149 c -10.18789,9.15213 -13.96923,27.36211 1.62037,40.45786 -9.46227,2.99522 -16.01872,2.10669 -21.69498,0 -26.836424,-11.21885 -17.195168,-36.6936 -1.17028,-42.07004 8.36048,-2.43379 16.1277,-1.12867 21.24489,1.61218 z"
             id="path6"
             sodipodi:nodetypes="ccccc" /><path
             style="fill:#4e7994;fill-opacity:1;stroke-width:0.335149"
             d="m 146.52063,348.26763 c 8.83967,-8.69642 17.86759,-24.73341 0.36008,-40.45785 0.67981,-0.0168 8.13506,-4.3442 21.15487,0.23031 24.76504,10.66547 18.33798,35.48698 -0.09,41.37909 -6.14757,2.21237 -16.09747,1.90851 -21.42493,-1.15155 z"
             id="path7"
             sodipodi:nodetypes="ccccc" /><path
             style="fill:#4e7994;fill-opacity:1;stroke-width:0.335149"
             d="m 98.752079,337.4208 c 16.392181,-12.94423 32.578801,-10.98774 48.631841,0.65141 3.71553,-6.04685 5.81953,-12.58453 0.12731,-21.49673 -13.56852,-17.2531 -38.71699,-9.96187 -45.83106,-0.65142 -6.4254,8.9535 -5.208931,17.77752 -2.928091,21.49674 z"
             id="path8"
             sodipodi:nodetypes="ccccc" /><path
             style="fill:#4e7994;fill-opacity:1;stroke-width:0.336456"
             d="m 259.92462,343.93496 h 5.8562 l -0.12729,25.38495 h -5.72887 z"
             id="path11" /><path
             style="fill:#4e7994;fill-opacity:1;stroke:#4e7994;stroke-width:0.335149;stroke-opacity:1"
             d="m 342.20566,344.06103 -8.5e-4,4.20787 -22.5346,-0.0954 0.0636,15.1586 c 0.005,1.38075 0.26293,1.79973 1.84599,1.7914 l 20.62396,-0.10855 v 4.32452 l -21.64243,0.0182 c -3.08217,-0.31624 -6.49274,-1.75762 -6.49274,-5.64562 v -17.58822 c 0.23536,-1.15346 1.50648,-1.77693 3.43733,-2.06282 z"
             id="path65"
             sodipodi:nodetypes="cccsscccsccc" /><path
             style="fill:#4e7994;fill-opacity:1;stroke-width:0.335149"
             d="m 409.13019,394.88112 0.0318,1.19426 -200.82914,-0.0814 v -1.05855 z"
             id="path31" /><path
             style="fill-opacity:0;stroke-width:0.335149"
             d="m 344.38613,402.46734 7.02161,1.91926 -0.18005,-3.45467 z"
             id="path62" /><path
             id="path68"
             style="fill:#4e7994;fill-opacity:1;stroke:#4e7994;stroke-width:0.336946;stroke-opacity:1"
             d="m 325.92295,310.89782 c -0.27446,-0.014 -0.73572,0.0126 -1.07186,0.0126 h -17.19307 c -5.80248,0.76189 -10.03291,3.25511 -11.52205,8.76835 l -0.09,17.05522 h 5.69368 l 0.0674,-7.66543 h 19.35346 l 0.09,7.68255 h 5.58028 v -24.05585 c 0,-0.69905 0.22965,-1.30379 -0.52384,-1.7646 -3e-5,-10e-6 0.1582,0.23336 0.1582,0.12238 -10e-6,-0.0411 -0.17208,-0.12439 -0.17208,-0.12439 z m -18.06395,4.49402 13.14124,0.004 -0.0318,9.08119 H 301.8418 l 0.0318,-3.86844 c 0.57869,-3.434 4.967,-5.13846 4.97372,-5.14211 z"
             sodipodi:nodetypes="csccccccccssscccccsccc" /><path
             style="fill:#4e7994;fill-opacity:1;stroke:#4e7994;stroke-width:0.335149;stroke-opacity:1"
             d="m 246.17354,336.65806 h 5.8153 l 0.12606,-16.02767 10.62247,14.73986 c 1.42994,1.98423 4.58838,1.53656 5.7613,-0.15355 l 10.44241,-15.04694 0.18003,16.49033 5.40124,0.0123 V 313.5675 c 0,-2.06867 -3.10008,-4.03099 -5.13118,-1.38186 l -13.77316,17.9642 -13.32306,-17.88742 c -1.5391,-2.06639 -5.80923,-1.64097 -5.85134,1.84247 z"
             id="path69"
             sodipodi:nodetypes="cccsscccsscssc" /><path
             style="fill:#4e7994;fill-opacity:1;stroke:#4e7994;stroke-width:0.336952;stroke-opacity:1"
             d="m 377.96482,315.33434 0.09,-4.42341 31.14523,-0.0776 v 4.50101 l -12.78215,0.0776 -0.09,21.1858 h -5.58095 l -0.09,-21.341 z"
             id="path70" /><path
             id="path71"
             style="fill:#4e7994;fill-opacity:1;stroke:#4e7994;stroke-width:0.336941;stroke-opacity:1"
             d="m 360.58946,310.75688 -21.60386,0.15517 v 25.75378 l 5.64001,0.0187 -0.0665,-9.1646 3.6e-4,-10e-4 -0.0192,-4.50195 -5.4e-4,-10e-4 0.0275,-7.91326 h 15.75282 c 5.74432,0 4.94883,7.91449 0.18004,7.91449 H 346.432 v 4.50074 h 6.86675 l 9.27166,9.15667 h 7.11127 l -9.72173,-9.23422 c 15.06429,-0.83586 12.45885,-15.59753 0.6301,-16.68316 z"
             sodipodi:nodetypes="cccccccccsscccccccc" /><path
             style="fill:#4e7994;fill-opacity:1;stroke:#4e7994;stroke-width:0.332883;stroke-opacity:1"
             d="m 207.82334,344.0906 6.30185,-0.0348 5.31154,16.99245 7.38218,-15.37342 c 1.07415,-2.23695 5.05958,-2.19775 6.1218,0.0757 l 7.11209,15.22196 5.53147,-16.8819 6.08193,-0.0348 -7.8323,23.27813 c -0.7457,2.21627 -5.07768,2.85469 -6.4819,0 l -7.56223,-15.37341 -7.83229,15.37341 c -1.04144,2.04415 -5.51659,3.00857 -6.48189,0.0757 z"
             id="path72"
             sodipodi:nodetypes="cccsscccsscssc" /><path
             id="rect74"
             style="fill:#4e7994;stroke:#4e7994;stroke-width:0.335676"
             d="m 321.60559,354.6019 h 17.28213 v 4.12563 h -17.28213 z" /><path
             style="fill:#4e7994;fill-opacity:1;stroke-width:0.341122"
             d="m 234.83775,310.63856 v 4.27401 l -19.4782,0.11245 c -3.27321,0.019 -4.67252,5.85331 0.12729,5.96112 l 15.02239,0.33743 c 7.51517,0.16879 8.77752,15.49283 -0.0528,15.50091 l -22.35355,0.0206 0.12729,-4.94885 20.30571,0.11246 c 3.49156,0.0195 2.77163,-5.92159 0.0636,-5.96112 l -15.40432,-0.22495 c -8.81634,-0.12874 -8.16188,-15.18399 0,-15.18397 z"
             id="path9-6-8"
             sodipodi:nodetypes="ccssssccssssc" /><path
             style="font-size:16.1117px;font-family:Calibri;-inkscape-font-specification:Calibri;letter-spacing:0px;fill:#4e7994;stroke:#4e7994;stroke-width:0.26895"
             d="m 184.24755,446.19096 q 0,0.0629 -0.0315,0.11014 -0.0315,0.0472 -0.11013,0.0787 -0.0787,0.0236 -0.21241,0.0393 -0.12588,0.0236 -0.32255,0.0236 -0.18881,0 -0.32255,-0.0236 -0.13374,-0.0157 -0.21241,-0.0393 -0.0787,-0.0315 -0.11014,-0.0787 -0.0315,-0.0472 -0.0315,-0.11014 v -9.77086 q 0,-0.0629 0.0315,-0.11014 0.0393,-0.0472 0.11801,-0.0708 0.0865,-0.0315 0.21241,-0.0472 0.13373,-0.0236 0.31468,-0.0236 0.19667,0 0.32255,0.0236 0.13374,0.0157 0.21241,0.0472 0.0787,0.0236 0.11013,0.0708 0.0315,0.0472 0.0315,0.11014 z m 10.40023,-0.35401 q 0,0.15734 -0.0551,0.26748 -0.0472,0.11014 -0.13374,0.18094 -0.0787,0.0708 -0.18094,0.10227 -0.10227,0.0315 -0.20454,0.0315 h -0.43269 q -0.20454,0 -0.36188,-0.0393 -0.14948,-0.0472 -0.29108,-0.15734 -0.13374,-0.118 -0.27535,-0.31468 -0.13374,-0.19667 -0.29895,-0.50349 l -3.20975,-5.79014 q -0.25175,-0.44842 -0.51136,-0.93618 -0.25174,-0.49562 -0.47202,-0.95978 h -0.0157 q 0.0157,0.56643 0.0236,1.15646 0.008,0.59002 0.008,1.17219 v 6.14415 q 0,0.0551 -0.0315,0.11014 -0.0315,0.0472 -0.11013,0.0787 -0.0708,0.0236 -0.19668,0.0393 -0.11801,0.0236 -0.30681,0.0236 -0.18881,0 -0.31469,-0.0236 -0.118,-0.0157 -0.18881,-0.0393 -0.0708,-0.0315 -0.10227,-0.0787 -0.0315,-0.0551 -0.0315,-0.11014 v -9.39324 q 0,-0.31468 0.17308,-0.44842 0.17307,-0.13374 0.37762,-0.13374 h 0.64509 q 0.22815,0 0.37762,0.0393 0.15734,0.0393 0.27535,0.13374 0.12587,0.0865 0.23601,0.25175 0.11801,0.15734 0.25175,0.40122 l 2.47025,4.46848 q 0.22814,0.40908 0.44055,0.80243 0.21241,0.38549 0.40909,0.76311 0.19667,0.37761 0.38548,0.74737 0.19668,0.36188 0.38549,0.73163 h 0.008 q -0.0157,-0.6215 -0.0236,-1.29019 0,-0.67657 0,-1.29807 v -5.52266 q 0,-0.0551 0.0315,-0.10227 0.0315,-0.0472 0.10227,-0.0787 0.0787,-0.0393 0.19668,-0.0551 0.12587,-0.0157 0.32255,-0.0157 0.17307,0 0.29895,0.0157 0.12587,0.0157 0.19667,0.0551 0.0708,0.0315 0.10227,0.0787 0.0315,0.0472 0.0315,0.10227 z m 10.40023,0 q 0,0.15734 -0.0551,0.26748 -0.0472,0.11014 -0.13374,0.18094 -0.0787,0.0708 -0.18094,0.10227 -0.10227,0.0315 -0.20455,0.0315 h -0.43268 q -0.20455,0 -0.36189,-0.0393 -0.14947,-0.0472 -0.29108,-0.15734 -0.13374,-0.118 -0.27534,-0.31468 -0.13374,-0.19667 -0.29895,-0.50349 l -3.20975,-5.79014 q -0.25175,-0.44842 -0.51136,-0.93618 -0.25175,-0.49562 -0.47202,-0.95978 h -0.0157 q 0.0157,0.56643 0.0236,1.15646 0.008,0.59002 0.008,1.17219 v 6.14415 q 0,0.0551 -0.0315,0.11014 -0.0315,0.0472 -0.11014,0.0787 -0.0708,0.0236 -0.19667,0.0393 -0.11801,0.0236 -0.30682,0.0236 -0.18881,0 -0.31468,-0.0236 -0.118,-0.0157 -0.18881,-0.0393 -0.0708,-0.0315 -0.10227,-0.0787 -0.0315,-0.0551 -0.0315,-0.11014 v -9.39324 q 0,-0.31468 0.17308,-0.44842 0.17307,-0.13374 0.37762,-0.13374 h 0.64509 q 0.22815,0 0.37762,0.0393 0.15734,0.0393 0.27535,0.13374 0.12587,0.0865 0.23601,0.25175 0.118,0.15734 0.25174,0.40122 l 2.47025,4.46848 q 0.22815,0.40908 0.44056,0.80243 0.21241,0.38549 0.40909,0.76311 0.19667,0.37761 0.38548,0.74737 0.19668,0.36188 0.38549,0.73163 h 0.008 q -0.0157,-0.6215 -0.0236,-1.29019 0,-0.67657 0,-1.29807 v -5.52266 q 0,-0.0551 0.0315,-0.10227 0.0315,-0.0472 0.10227,-0.0787 0.0787,-0.0393 0.19668,-0.0551 0.12587,-0.0157 0.32255,-0.0157 0.17307,0 0.29894,0.0157 0.12588,0.0157 0.19668,0.0551 0.0708,0.0315 0.10227,0.0787 0.0315,0.0472 0.0315,0.10227 z m 11.23413,-4.64942 q 0,1.23512 -0.29108,2.22637 -0.29108,0.99125 -0.87324,1.69141 -0.57429,0.6923 -1.44753,1.06992 -0.87325,0.36975 -2.03757,0.36975 -1.14859,0 -1.99036,-0.33828 -0.83391,-0.34615 -1.3846,-0.99912 -0.54282,-0.65296 -0.8103,-1.62061 -0.26748,-0.96764 -0.26748,-2.22637 0,-1.20366 0.29108,-2.18704 0.29108,-0.98338 0.87324,-1.66781 0.58216,-0.6923 1.4554,-1.06205 0.87324,-0.37762 2.03757,-0.37762 1.12498,0 1.95889,0.33829 0.83391,0.33828 1.3846,0.99124 0.55856,0.6451 0.82604,1.60488 0.27534,0.95191 0.27534,2.18704 z m -1.42393,0.0944 q 0,-0.86537 -0.15734,-1.60488 -0.14948,-0.74736 -0.51136,-1.29019 -0.35402,-0.55069 -0.95191,-0.85751 -0.5979,-0.30681 -1.479,-0.30681 -0.88111,0 -1.47901,0.33041 -0.59789,0.33042 -0.97551,0.88111 -0.36975,0.5507 -0.53496,1.2902 -0.15734,0.73163 -0.15734,1.54194 0,0.89684 0.14947,1.65208 0.14948,0.75523 0.50349,1.30592 0.35402,0.54283 0.94405,0.84964 0.59789,0.29895 1.49474,0.29895 0.88897,0 1.49473,-0.33041 0.60577,-0.33042 0.97552,-0.88898 0.36975,-0.56643 0.52709,-1.30593 0.15734,-0.7395 0.15734,-1.56554 z m 7.48156,4.87757 q -0.0315,0.0865 -0.0865,0.1416 -0.0551,0.0551 -0.15734,0.0865 -0.0944,0.0315 -0.25175,0.0393 -0.14947,0.0157 -0.37761,0.0157 -0.17308,0 -0.30682,-0.008 -0.12587,0 -0.22028,-0.0157 -0.0944,-0.0157 -0.1652,-0.0315 -0.0629,-0.0236 -0.11014,-0.0551 -0.0472,-0.0315 -0.0787,-0.0708 -0.0236,-0.0472 -0.0472,-0.11014 l -3.32775,-9.45618 q -0.0629,-0.17308 -0.0708,-0.27535 0,-0.11014 0.0708,-0.16521 0.0708,-0.0551 0.22814,-0.0708 0.15734,-0.0157 0.42482,-0.0157 0.22028,0 0.34615,0.0157 0.13374,0.008 0.20454,0.0393 0.0708,0.0315 0.10227,0.0865 0.0393,0.0472 0.0708,0.12587 l 2.91867,8.56721 h 0.008 l 2.84,-8.55147 q 0.0236,-0.0865 0.0551,-0.14161 0.0315,-0.0551 0.11014,-0.0865 0.0787,-0.0315 0.22027,-0.0393 0.14161,-0.0157 0.37762,-0.0157 0.24388,0 0.38549,0.0236 0.1416,0.0157 0.18881,0.0708 0.0551,0.0551 0.0393,0.16521 -0.008,0.10227 -0.0708,0.27534 z m 10.6913,-0.32255 q 0,0.1416 -0.0157,0.25174 -0.0157,0.10227 -0.0551,0.17308 -0.0393,0.0708 -0.0944,0.10227 -0.0472,0.0315 -0.11013,0.0315 h -4.88544 q -0.18094,0 -0.34615,-0.11801 -0.15734,-0.12587 -0.15734,-0.43269 v -9.07856 q 0,-0.30682 0.15734,-0.42482 0.16521,-0.12587 0.34615,-0.12587 h 4.83037 q 0.0629,0 0.11014,0.0315 0.0551,0.0315 0.0865,0.10228 0.0315,0.0708 0.0472,0.18094 0.0236,0.10227 0.0236,0.25961 0,0.14161 -0.0236,0.25175 -0.0157,0.10227 -0.0472,0.17307 -0.0315,0.0629 -0.0865,0.0944 -0.0472,0.0315 -0.11014,0.0315 h -3.98073 v 3.19402 h 3.4143 q 0.0629,0 0.11014,0.0393 0.0551,0.0315 0.0865,0.0944 0.0393,0.0629 0.0551,0.17308 0.0157,0.11014 0.0157,0.25961 0,0.14161 -0.0157,0.24388 -0.0157,0.10227 -0.0551,0.16521 -0.0315,0.0629 -0.0865,0.0944 -0.0472,0.0236 -0.11014,0.0236 h -3.4143 v 3.64244 h 4.0358 q 0.0629,0 0.11013,0.0315 0.0551,0.0315 0.0944,0.10227 0.0393,0.0629 0.0551,0.17308 0.0157,0.10227 0.0157,0.25961 z m 8.99203,0.35401 q 0,0.0629 -0.0236,0.11014 -0.0236,0.0472 -0.10227,0.0787 -0.0787,0.0315 -0.22028,0.0472 -0.1416,0.0157 -0.37762,0.0157 -0.20454,0 -0.33828,-0.0157 -0.12587,-0.0157 -0.20454,-0.0472 -0.0787,-0.0393 -0.12587,-0.10227 -0.0393,-0.0629 -0.0708,-0.15734 l -0.93618,-2.39945 q -0.1652,-0.40908 -0.34615,-0.74737 -0.17307,-0.34614 -0.41695,-0.59002 -0.24388,-0.25175 -0.57429,-0.38549 -0.33042,-0.1416 -0.79457,-0.1416 h -0.90471 v 4.33473 q 0,0.0629 -0.0393,0.11014 -0.0315,0.0472 -0.11014,0.0787 -0.0708,0.0236 -0.20454,0.0393 -0.12587,0.0236 -0.32255,0.0236 -0.19668,0 -0.33041,-0.0236 -0.12588,-0.0157 -0.20455,-0.0393 -0.0787,-0.0315 -0.11014,-0.0787 -0.0315,-0.0472 -0.0315,-0.11014 v -9.42471 q 0,-0.30682 0.15734,-0.42482 0.1652,-0.12587 0.34615,-0.12587 h 2.16343 q 0.38549,0 0.63723,0.0236 0.25962,0.0157 0.46416,0.0393 0.59003,0.10227 1.03845,0.32255 0.45629,0.22028 0.7631,0.55856 0.30682,0.33828 0.45629,0.77884 0.15734,0.43269 0.15734,0.95978 0,0.51136 -0.14161,0.92044 -0.13374,0.40122 -0.39335,0.7159 -0.25961,0.30682 -0.6215,0.53496 -0.36188,0.22815 -0.8103,0.38549 0.25174,0.11013 0.45629,0.28321 0.20454,0.16521 0.37762,0.40122 0.18094,0.23601 0.33828,0.54282 0.15734,0.30682 0.31468,0.6923 l 0.91258,2.24211 q 0.11014,0.28321 0.1416,0.40122 0.0315,0.11014 0.0315,0.17307 z m -2.03756,-7.15114 q 0,-0.59789 -0.26748,-1.00698 -0.26748,-0.41695 -0.89684,-0.59789 -0.19668,-0.0551 -0.44843,-0.0787 -0.24387,-0.0236 -0.64509,-0.0236 h -1.14072 v 3.43003 h 1.32166 q 0.53496,0 0.92044,-0.12588 0.39336,-0.13374 0.65297,-0.36188 0.25961,-0.23601 0.37762,-0.55069 0.12587,-0.31468 0.12587,-0.68444 z m 7.1354,4.67303 q 0,-0.43269 0.11801,-0.81818 0.118,-0.39335 0.36975,-0.75523 0.25174,-0.36975 0.65296,-0.70804 0.40909,-0.34614 0.98338,-0.69229 -0.31468,-0.42482 -0.54282,-0.77097 -0.22028,-0.34615 -0.36975,-0.6451 -0.14161,-0.29895 -0.20455,-0.56643 -0.0629,-0.27535 -0.0629,-0.55069 0,-0.48776 0.1652,-0.92831 0.16521,-0.44842 0.5271,-0.78671 0.36975,-0.34615 0.94404,-0.54282 0.5743,-0.20455 1.39247,-0.20455 0.6923,0 1.19579,0.14948 0.51136,0.14947 0.84177,0.42482 0.33828,0.27534 0.50349,0.6687 0.17308,0.38548 0.17308,0.86537 0,0.46416 -0.14948,0.84964 -0.14947,0.38549 -0.47989,0.74737 -0.33041,0.36188 -0.84964,0.72377 -0.51135,0.35402 -1.24299,0.74737 0.26748,0.32255 0.58216,0.67656 0.31468,0.34615 0.65297,0.70017 0.34615,0.35402 0.70016,0.70017 0.36189,0.33828 0.70804,0.65296 0.15734,-0.21241 0.28321,-0.47989 0.12587,-0.27535 0.22028,-0.57429 0.0944,-0.30682 0.1416,-0.6215 0.0472,-0.31468 0.0472,-0.63723 v -0.28321 q 0,-0.0787 0.0236,-0.12588 0.0315,-0.0551 0.0944,-0.0865 0.0629,-0.0393 0.18094,-0.0551 0.12588,-0.0157 0.32255,-0.0157 0.17308,0 0.29108,0.008 0.12588,0.008 0.20455,0.0393 0.0787,0.0236 0.11013,0.0865 0.0393,0.0551 0.0393,0.15734 v 0.19668 q 0,0.44055 -0.0787,0.86537 -0.0708,0.42482 -0.20454,0.83391 -0.12588,0.40122 -0.32255,0.77097 -0.18881,0.36975 -0.42482,0.68443 0.35401,0.28322 0.61363,0.47203 0.26748,0.1888 0.44842,0.30681 0.18881,0.11801 0.30681,0.16521 0.12587,0.0472 0.20455,0.0472 0.0787,0 0.14947,-0.008 0.0708,-0.008 0.11014,0.0236 0.0472,0.0315 0.0708,0.12588 0.0236,0.0944 0.0236,0.29108 0,0.19667 -0.008,0.31468 -0.008,0.11801 -0.0315,0.18094 -0.0157,0.0551 -0.0629,0.0944 -0.0472,0.0393 -0.17307,0.0708 -0.12588,0.0315 -0.33042,0.0315 -0.15734,0 -0.34615,-0.0551 -0.18881,-0.0551 -0.44055,-0.18881 -0.25175,-0.14161 -0.59003,-0.37762 -0.33042,-0.23601 -0.77884,-0.59789 -0.33042,0.26748 -0.70017,0.49562 -0.36188,0.22814 -0.77883,0.39335 -0.40909,0.15734 -0.86538,0.24388 -0.44842,0.0944 -0.97551,0.0944 -0.49562,0 -0.94405,-0.0865 -0.44055,-0.0865 -0.81817,-0.24388 -0.37762,-0.16521 -0.67656,-0.40909 -0.29895,-0.24388 -0.51136,-0.55069 -0.20454,-0.31468 -0.32255,-0.70017 -0.11014,-0.38548 -0.11014,-0.8339 z m 2.32078,-5.6092 q 0,0.21241 0.0551,0.43268 0.0629,0.22028 0.18094,0.46416 0.12587,0.23601 0.29895,0.51136 0.18094,0.27534 0.42482,0.61363 0.57429,-0.32255 0.95978,-0.59003 0.39335,-0.27535 0.62936,-0.52709 0.23601,-0.25175 0.33828,-0.50349 0.11014,-0.25175 0.11014,-0.53496 0,-0.22815 -0.0865,-0.43269 -0.0787,-0.21241 -0.25961,-0.36975 -0.18094,-0.16521 -0.45629,-0.25961 -0.27534,-0.0944 -0.66083,-0.0944 -0.41695,0 -0.70803,0.11014 -0.28322,0.10227 -0.47202,0.28321 -0.18095,0.17308 -0.26748,0.40909 -0.0865,0.23601 -0.0865,0.48776 z m -0.91258,5.47546 q 0,0.40908 0.13374,0.74737 0.14161,0.33828 0.40909,0.59002 0.26748,0.24388 0.6687,0.38549 0.40122,0.13374 0.92831,0.13374 0.32255,0 0.62936,-0.0629 0.30682,-0.0708 0.58216,-0.18094 0.28322,-0.11801 0.53496,-0.27535 0.25175,-0.1652 0.46416,-0.34615 -0.40909,-0.35401 -0.81818,-0.73163 -0.40122,-0.38549 -0.77883,-0.77097 -0.37762,-0.38549 -0.73164,-0.7631 -0.34615,-0.38549 -0.63723,-0.74737 -0.39335,0.25174 -0.66083,0.50349 -0.25961,0.24388 -0.42482,0.49562 -0.15734,0.24388 -0.22814,0.49563 -0.0708,0.25174 -0.0708,0.52709 z m -2.25784,-7.36355 z m 23.60899,9.70006 q 0.0629,0.17307 0.0629,0.28321 0.008,0.10227 -0.0551,0.15734 -0.0629,0.0551 -0.21241,0.0708 -0.14161,0.0157 -0.38548,0.0157 -0.24388,0 -0.39336,-0.0157 -0.1416,-0.008 -0.22027,-0.0315 -0.0708,-0.0315 -0.11014,-0.0787 -0.0315,-0.0472 -0.0629,-0.11801 l -0.87324,-2.47812 h -4.23247 l -0.83391,2.44665 q -0.0236,0.0708 -0.0629,0.12588 -0.0393,0.0472 -0.11801,0.0865 -0.0708,0.0315 -0.21241,0.0472 -0.13374,0.0157 -0.35401,0.0157 -0.22815,0 -0.37762,-0.0236 -0.14161,-0.0157 -0.20454,-0.0708 -0.0551,-0.0551 -0.0551,-0.15735 0.008,-0.11013 0.0708,-0.28321 l 3.41429,-9.45618 q 0.0315,-0.0865 0.0787,-0.14161 0.0551,-0.0551 0.14947,-0.0865 0.10227,-0.0315 0.25174,-0.0393 0.15735,-0.0157 0.39336,-0.0157 0.25174,0 0.41695,0.0157 0.16521,0.008 0.26748,0.0393 0.10227,0.0315 0.15734,0.0944 0.0551,0.0551 0.0865,0.1416 z m -4.38194,-8.34693 h -0.008 l -1.75435,5.07424 h 3.54017 z m 17.15016,8.62227 q 0,0.0629 -0.0315,0.11014 -0.0315,0.0472 -0.11014,0.0787 -0.0787,0.0236 -0.20454,0.0393 -0.11801,0.0236 -0.31469,0.0236 -0.18094,0 -0.31468,-0.0236 -0.12587,-0.0157 -0.20454,-0.0393 -0.0708,-0.0315 -0.10227,-0.0787 -0.0315,-0.0472 -0.0315,-0.11014 v -8.86615 h -0.0157 l -3.62671,8.90549 q -0.0236,0.0551 -0.0708,0.0944 -0.0393,0.0393 -0.12588,0.0708 -0.0787,0.0236 -0.19667,0.0315 -0.11014,0.0157 -0.26748,0.0157 -0.16521,0 -0.28321,-0.0157 -0.11801,-0.0157 -0.19668,-0.0393 -0.0787,-0.0315 -0.12587,-0.0708 -0.0393,-0.0393 -0.0551,-0.0865 l -3.46937,-8.90549 h -0.008 v 8.86615 q 0,0.0629 -0.0315,0.11014 -0.0315,0.0472 -0.11014,0.0787 -0.0787,0.0236 -0.20454,0.0393 -0.12588,0.0236 -0.32255,0.0236 -0.18881,0 -0.31469,-0.0236 -0.12587,-0.0157 -0.20454,-0.0393 -0.0708,-0.0315 -0.10227,-0.0787 -0.0236,-0.0472 -0.0236,-0.11014 v -9.36177 q 0,-0.33042 0.17307,-0.47203 0.17308,-0.1416 0.38549,-0.1416 h 0.81817 q 0.25175,0 0.44056,0.0472 0.1888,0.0472 0.33041,0.14947 0.14161,0.10227 0.23601,0.25962 0.0944,0.15734 0.16521,0.36975 l 2.95014,7.37141 h 0.0393 l 3.06814,-7.34781 q 0.0865,-0.23601 0.18881,-0.40122 0.10227,-0.16521 0.22028,-0.25961 0.12587,-0.10228 0.27534,-0.14161 0.14948,-0.0472 0.34615,-0.0472 h 0.85751 q 0.11801,0 0.22028,0.0393 0.11014,0.0315 0.18094,0.11014 0.0787,0.0708 0.12587,0.18881 0.0472,0.11014 0.0472,0.27535 z m 8.37052,-0.35401 q 0,0.1416 -0.0157,0.25174 -0.0157,0.10227 -0.0551,0.17308 -0.0393,0.0708 -0.0944,0.10227 -0.0472,0.0315 -0.11014,0.0315 h -4.88544 q -0.18094,0 -0.34615,-0.11801 -0.15734,-0.12587 -0.15734,-0.43269 v -9.07856 q 0,-0.30682 0.15734,-0.42482 0.16521,-0.12587 0.34615,-0.12587 h 4.83037 q 0.0629,0 0.11014,0.0315 0.0551,0.0315 0.0865,0.10228 0.0315,0.0708 0.0472,0.18094 0.0236,0.10227 0.0236,0.25961 0,0.14161 -0.0236,0.25175 -0.0157,0.10227 -0.0472,0.17307 -0.0315,0.0629 -0.0865,0.0944 -0.0472,0.0315 -0.11014,0.0315 h -3.98073 v 3.19402 h 3.4143 q 0.0629,0 0.11014,0.0393 0.0551,0.0315 0.0865,0.0944 0.0393,0.0629 0.0551,0.17308 0.0157,0.11014 0.0157,0.25961 0,0.14161 -0.0157,0.24388 -0.0157,0.10227 -0.0551,0.16521 -0.0315,0.0629 -0.0865,0.0944 -0.0472,0.0236 -0.11014,0.0236 h -3.4143 v 3.64244 h 4.0358 q 0.0629,0 0.11014,0.0315 0.0551,0.0315 0.0944,0.10227 0.0393,0.0629 0.0551,0.17308 0.0157,0.10227 0.0157,0.25961 z m -1.87235,-12.42993 q 0.0865,-0.10227 0.16521,-0.15734 0.0865,-0.0551 0.1888,-0.0865 0.10228,-0.0315 0.24388,-0.0393 0.14161,-0.0157 0.33829,-0.0157 0.23601,0 0.36975,0.0393 0.13374,0.0315 0.18881,0.0865 0.0551,0.0551 0.0315,0.12587 -0.0157,0.0708 -0.0865,0.14947 l -1.78582,1.66782 q -0.0787,0.0787 -0.14948,0.12587 -0.0629,0.0393 -0.14947,0.0708 -0.0865,0.0236 -0.20454,0.0393 -0.11014,0.008 -0.27535,0.008 -0.18094,0 -0.28321,-0.0157 -0.10227,-0.0236 -0.14161,-0.0629 -0.0393,-0.0472 -0.0236,-0.11014 0.0157,-0.0629 0.0865,-0.14948 z m -2.61973,2.80854 z m 11.97364,9.58992 q 0,0.15734 -0.0157,0.26748 -0.0157,0.10227 -0.0551,0.18094 -0.0315,0.0708 -0.0865,0.11014 -0.0472,0.0315 -0.11801,0.0315 h -4.49994 q -0.18095,0 -0.34615,-0.11801 -0.15734,-0.12587 -0.15734,-0.43269 v -9.42471 q 0,-0.0629 0.0315,-0.11014 0.0315,-0.0472 0.11014,-0.0708 0.0787,-0.0315 0.21241,-0.0472 0.13374,-0.0236 0.32255,-0.0236 0.19668,0 0.32255,0.0236 0.13374,0.0157 0.21241,0.0472 0.0787,0.0236 0.11014,0.0708 0.0315,0.0472 0.0315,0.11014 v 8.80322 h 3.6503 q 0.0708,0 0.11801,0.0393 0.0551,0.0315 0.0865,0.10228 0.0393,0.0629 0.0551,0.17307 0.0157,0.11014 0.0157,0.26748 z m 2.84787,0.38548 q 0,0.0629 -0.0315,0.11014 -0.0315,0.0472 -0.11014,0.0787 -0.0787,0.0236 -0.21241,0.0393 -0.12587,0.0236 -0.32255,0.0236 -0.18881,0 -0.32255,-0.0236 -0.13374,-0.0157 -0.21241,-0.0393 -0.0787,-0.0315 -0.11013,-0.0787 -0.0315,-0.0472 -0.0315,-0.11014 v -9.77086 q 0,-0.0629 0.0315,-0.11014 0.0393,-0.0472 0.118,-0.0708 0.0865,-0.0315 0.21241,-0.0472 0.13374,-0.0236 0.31468,-0.0236 0.19668,0 0.32255,0.0236 0.13374,0.0157 0.21241,0.0472 0.0787,0.0236 0.11014,0.0708 0.0315,0.0472 0.0315,0.11014 z m 11.23414,-5.00343 q 0,1.23512 -0.29109,2.22637 -0.29108,0.99125 -0.87324,1.69141 -0.57429,0.6923 -1.44753,1.06992 -0.87324,0.36975 -2.03757,0.36975 -1.14858,0 -1.99036,-0.33828 -0.8339,-0.34615 -1.3846,-0.99912 -0.54282,-0.65296 -0.8103,-1.62061 -0.26748,-0.96764 -0.26748,-2.22637 0,-1.20366 0.29108,-2.18704 0.29108,-0.98338 0.87324,-1.66781 0.58216,-0.6923 1.4554,-1.06205 0.87324,-0.37762 2.03757,-0.37762 1.12498,0 1.95889,0.33829 0.83391,0.33828 1.3846,0.99124 0.55856,0.6451 0.82604,1.60488 0.27535,0.95191 0.27535,2.18704 z m -1.42394,0.0944 q 0,-0.86537 -0.15734,-1.60488 -0.14947,-0.74736 -0.51136,-1.29019 -0.35401,-0.55069 -0.95191,-0.85751 -0.59789,-0.30681 -1.479,-0.30681 -0.88111,0 -1.47901,0.33041 -0.59789,0.33042 -0.97551,0.88111 -0.36975,0.5507 -0.53496,1.2902 -0.15734,0.73163 -0.15734,1.54194 0,0.89684 0.14947,1.65208 0.14948,0.75523 0.50349,1.30592 0.35402,0.54283 0.94405,0.84964 0.59789,0.29895 1.49474,0.29895 0.88897,0 1.49473,-0.33041 0.60577,-0.33042 0.97552,-0.88898 0.36975,-0.56643 0.52709,-1.30593 0.15734,-0.7395 0.15734,-1.56554 z m 10.35302,4.90903 q 0,0.0629 -0.0236,0.11014 -0.0236,0.0472 -0.10227,0.0787 -0.0787,0.0315 -0.22028,0.0472 -0.14161,0.0157 -0.37762,0.0157 -0.20454,0 -0.33828,-0.0157 -0.12587,-0.0157 -0.20454,-0.0472 -0.0787,-0.0393 -0.12588,-0.10227 -0.0393,-0.0629 -0.0708,-0.15734 l -0.93618,-2.39945 q -0.1652,-0.40908 -0.34615,-0.74737 -0.17307,-0.34614 -0.41695,-0.59002 -0.24388,-0.25175 -0.57429,-0.38549 -0.33042,-0.1416 -0.79457,-0.1416 h -0.90471 v 4.33473 q 0,0.0629 -0.0393,0.11014 -0.0315,0.0472 -0.11014,0.0787 -0.0708,0.0236 -0.20454,0.0393 -0.12587,0.0236 -0.32255,0.0236 -0.19668,0 -0.33042,-0.0236 -0.12587,-0.0157 -0.20454,-0.0393 -0.0787,-0.0315 -0.11014,-0.0787 -0.0315,-0.0472 -0.0315,-0.11014 v -9.42471 q 0,-0.30682 0.15735,-0.42482 0.1652,-0.12587 0.34614,-0.12587 h 2.16344 q 0.38549,0 0.63723,0.0236 0.25961,0.0157 0.46416,0.0393 0.59003,0.10227 1.03845,0.32255 0.45628,0.22028 0.7631,0.55856 0.30681,0.33828 0.45629,0.77884 0.15734,0.43269 0.15734,0.95978 0,0.51136 -0.14161,0.92044 -0.13374,0.40122 -0.39335,0.7159 -0.25961,0.30682 -0.6215,0.53496 -0.36188,0.22815 -0.8103,0.38549 0.25174,0.11013 0.45629,0.28321 0.20454,0.16521 0.37761,0.40122 0.18095,0.23601 0.33829,0.54282 0.15734,0.30682 0.31468,0.6923 l 0.91258,2.24211 q 0.11013,0.28321 0.1416,0.40122 0.0315,0.11014 0.0315,0.17307 z m -2.03756,-7.15114 q 0,-0.59789 -0.26748,-1.00698 -0.26748,-0.41695 -0.89685,-0.59789 -0.19667,-0.0551 -0.44842,-0.0787 -0.24387,-0.0236 -0.64509,-0.0236 h -1.14072 v 3.43003 h 1.32166 q 0.53496,0 0.92044,-0.12588 0.39335,-0.13374 0.65297,-0.36188 0.25961,-0.23601 0.37761,-0.55069 0.12588,-0.31468 0.12588,-0.68444 z m 9.66073,6.79713 q 0,0.1416 -0.0157,0.25174 -0.0157,0.10227 -0.0551,0.17308 -0.0393,0.0708 -0.0944,0.10227 -0.0472,0.0315 -0.11014,0.0315 h -4.88543 q -0.18094,0 -0.34615,-0.11801 -0.15734,-0.12587 -0.15734,-0.43269 v -9.07856 q 0,-0.30682 0.15734,-0.42482 0.16521,-0.12587 0.34615,-0.12587 h 4.83036 q 0.0629,0 0.11014,0.0315 0.0551,0.0315 0.0865,0.10228 0.0315,0.0708 0.0472,0.18094 0.0236,0.10227 0.0236,0.25961 0,0.14161 -0.0236,0.25175 -0.0157,0.10227 -0.0472,0.17307 -0.0315,0.0629 -0.0865,0.0944 -0.0472,0.0315 -0.11014,0.0315 h -3.98072 v 3.19402 h 3.41429 q 0.0629,0 0.11014,0.0393 0.0551,0.0315 0.0865,0.0944 0.0393,0.0629 0.0551,0.17308 0.0157,0.11014 0.0157,0.25961 0,0.14161 -0.0157,0.24388 -0.0157,0.10227 -0.0551,0.16521 -0.0315,0.0629 -0.0865,0.0944 -0.0472,0.0236 -0.11014,0.0236 h -3.41429 v 3.64244 h 4.03579 q 0.0629,0 0.11014,0.0315 0.0551,0.0315 0.0944,0.10227 0.0393,0.0629 0.0551,0.17308 0.0157,0.10227 0.0157,0.25961 z m 8.99202,0.35401 q 0,0.0629 -0.0236,0.11014 -0.0236,0.0472 -0.10227,0.0787 -0.0787,0.0315 -0.22028,0.0472 -0.14161,0.0157 -0.37762,0.0157 -0.20454,0 -0.33828,-0.0157 -0.12587,-0.0157 -0.20454,-0.0472 -0.0787,-0.0393 -0.12588,-0.10227 -0.0393,-0.0629 -0.0708,-0.15734 l -0.93618,-2.39945 q -0.16521,-0.40908 -0.34615,-0.74737 -0.17307,-0.34614 -0.41695,-0.59002 -0.24388,-0.25175 -0.5743,-0.38549 -0.33041,-0.1416 -0.79457,-0.1416 h -0.90471 v 4.33473 q 0,0.0629 -0.0393,0.11014 -0.0315,0.0472 -0.11014,0.0787 -0.0708,0.0236 -0.20454,0.0393 -0.12588,0.0236 -0.32255,0.0236 -0.19668,0 -0.33042,-0.0236 -0.12587,-0.0157 -0.20454,-0.0393 -0.0787,-0.0315 -0.11014,-0.0787 -0.0315,-0.0472 -0.0315,-0.11014 v -9.42471 q 0,-0.30682 0.15734,-0.42482 0.16521,-0.12587 0.34615,-0.12587 h 2.16344 q 0.38548,0 0.63723,0.0236 0.25961,0.0157 0.46416,0.0393 0.59002,0.10227 1.03844,0.32255 0.45629,0.22028 0.76311,0.55856 0.30681,0.33828 0.45629,0.77884 0.15734,0.43269 0.15734,0.95978 0,0.51136 -0.14161,0.92044 -0.13374,0.40122 -0.39335,0.7159 -0.25961,0.30682 -0.6215,0.53496 -0.36188,0.22815 -0.8103,0.38549 0.25174,0.11013 0.45629,0.28321 0.20454,0.16521 0.37761,0.40122 0.18095,0.23601 0.33829,0.54282 0.15734,0.30682 0.31468,0.6923 l 0.91257,2.24211 q 0.11014,0.28321 0.14161,0.40122 0.0315,0.11014 0.0315,0.17307 z m -2.03756,-7.15114 q 0,-0.59789 -0.26748,-1.00698 -0.26748,-0.41695 -0.89685,-0.59789 -0.19667,-0.0551 -0.44842,-0.0787 -0.24388,-0.0236 -0.6451,-0.0236 h -1.14072 v 3.43003 h 1.32167 q 0.53496,0 0.92044,-0.12588 0.39335,-0.13374 0.65297,-0.36188 0.25961,-0.23601 0.37761,-0.55069 0.12588,-0.31468 0.12588,-0.68444 z"
             id="text1"
             transform="scale(1.1420815,0.87559425)"
             aria-label="INNOVER &amp; AMÉLIORER" /></g><text
           xml:space="preserve"
           style="font-style:normal;font-variant:normal;font-weight:normal;font-stretch:normal;font-size:15.875px;font-family:'Bauhaus 93';-inkscape-font-specification:'Bauhaus 93, ';text-align:start;letter-spacing:0px;writing-mode:lr-tb;direction:ltr;text-anchor:start;opacity:1;fill:#4e7994;stroke:#4e7994;stroke-width:0.264999"
           x="334.147"
           y="487.46774"
           id="text3"><tspan
             sodipodi:role="line"
             id="tspan3"
             style="font-style:normal;font-variant:normal;font-weight:normal;font-stretch:normal;font-family:'Bauhaus 93';-inkscape-font-specification:'Bauhaus 93, ';stroke-width:0.265"
             x="334.147"
             y="487.46774" /></text><text
           xml:space="preserve"
           style="font-style:normal;font-variant:normal;font-weight:normal;font-stretch:normal;font-size:15.875px;font-family:'Bauhaus 93';-inkscape-font-specification:'Bauhaus 93, ';text-align:start;letter-spacing:0px;writing-mode:lr-tb;direction:ltr;text-anchor:start;opacity:1;fill:#4e7994;stroke:#4e7994;stroke-width:0.264999"
           x="268.5719"
           y="490.36252"
           id="text5"><tspan
             sodipodi:role="line"
             id="tspan5"
             style="stroke-width:0.265"
             x="268.5719"
             y="490.36252" /></text></g></g></g></svg>
